<?xml version="1.0" encoding="UTF-8" standalone="yes"?>
<svg version="1.1" id="Layer_1" xmlns="http://www.w3.org/2000/svg" xmlns:xlink="http://www.w3.org/1999/xlink" x="0px" y="0px" viewBox="0 0 302 315" style="enable-background:new 0 0 302 315;" xml:space="preserve">
      <style type="text/css">.st0{fill:url(#SVGID_1_);}</style>
    <g id="color_index_g">
              <linearGradient id="SVGID_1_" gradientUnits="userSpaceOnUse" x1="0.0499939" y1="842.5" x2="302" y2="842.5" gradientTransform="matrix(1 0 0 1 0 -685)">
                      <stop offset="0" style="stop-color:rgba(25, 167, 100, 1)"/>
            <stop offset="1" style="stop-color:rgba(27, 233, 167, 1)"/>
                  </linearGradient>
        <path class="st0" d="M251.625,124.6999969c-11.6000061-35.6999969-41.3999939-63-78.6000061-70.8000031&#x9;&#x9;c-14.3000031-3.0999985-29.8999939-3.0999985-44,0c-37.1999969,7.9000015-67,35.0999985-78.5999985,70.8000031&#x9;&#x9;c3.2999992,2.3000031,5.4000015,6.1000061,5.4000015,10.3999939c0,7.1000061-5.7000008,12.8000031-12.7999992,12.8000031&#x9;&#x9;s-12.7999992-5.6999969-12.7999992-12.8000031c0-6.6000061,5-12,11.5-12.6999969&#x9;&#x9;c12.5-39,44.9000015-68.8000031,85.4000015-77.3000031c15.3000031-3.4000015,32.3000031-3.4000015,47.8000031,0&#x9;&#x9;c40.5,8.5,72.9000092,38.3000031,85.4000092,77.3000031c6.3999939,0.6999969,11.5,6.1000061,11.5,12.6999969&#x9;&#x9;c0,7.1000061-5.7000122,12.8000031-12.7999878,12.8000031c-7.1000061,0-12.8000031-5.6999969-12.8000031-12.8000031&#x9;&#x9;C246.2249908,130.8000031,248.3249969,127,251.625,124.6999969z M128.1656799,289.4919128&#x9;&#x9;c-4.6014633,0-8.6027374,2.4007568-10.8034363,6.0018921c-55.5176315-13.4042358-97.6309967-58.6185913-106.5338287-115.6367035&#x9;&#x9;c-2.3007307-14.9047241-2.3007307-29.6094055,0-44.4141083C19.7312431,78.2248306,61.8446121,33.010479,117.262207,19.6062241&#x9;&#x9;c2.3007278,3.6011448,6.302002,6.1019382,10.8034363,6.1019382c7.1022491,0,12.8040619-5.7018108,12.8040619-12.8040648&#x9;&#x9;S135.1678925,0,128.1656799,0c-6.4020386,0-11.6036911,4.6014609-12.6040039,10.7033978&#x9;&#x9;C56.342865,24.9079075,11.428606,73.1232147,1.9255893,133.9425201c-2.5007939,15.8050232-2.5007939,31.4099579,0,47.2149811&#x9;&#x9;c9.5030165,60.8193207,54.4172783,109.0346069,113.6360779,123.1390991C116.5619812,310.3985291,121.7636337,315,128.1656799,315&#x9;&#x9;c7.1022491,0,12.8040619-5.7018127,12.8040619-12.8040466&#x9;&#x9;C140.9697266,295.1937256,135.1678925,289.4919128,128.1656799,289.4919128z M300.125,133.8999939&#x9;&#x9;c-9.5-60.9000015-54.3999939-109.0999985-113.6000061-123.1999969c-1-6.0999999-6.3000031-10.6999998-12.6000061-10.6999998&#x9;&#x9;c-7.1000061,0-12.8000031,5.6999998-12.8000031,12.8000002s5.6999969,12.8000011,12.8000031,12.8000011&#x9;&#x9;c4.6000061,0,8.6000061-2.3999996,10.8000031-6.1000004C240.125,32.8999977,282.2250061,78.0999985,291.125,135.3000031&#x9;&#x9;c2.2999878,14.8999939,2.2999878,29.5,0,44.4000092C282.2250061,236.8000183,240.125,282,184.7250061,295.4000244&#x9;&#x9;c-2.3000031-3.6000061-6.3000031-6-10.8000031-6c-7.1000061,0-12.8000031,5.7000122-12.8000031,12.7999878&#x9;&#x9;C161.125,309.3000183,166.8249969,315,173.9250031,315c6.3999939,0,11.6000061-4.6000061,12.6000061-10.7000122&#x9;&#x9;C245.625,290.1999817,290.625,241.9999847,300.125,181.1999817C302.625,165.3000031,302.625,149.8000031,300.125,133.8999939z&#x9;&#x9; M260.2250061,193.1000061c6.5-0.6000061,11.6000061-6,11.6000061-12.6999969&#x9;&#x9;c0-7.1000061-5.7000122-12.8000031-12.7999878-12.8000031c-7.1000061,0-12.8000031,5.6999969-12.8000031,12.8000031&#x9;&#x9;c0,4.3000031,2.1000061,8,5.3000031,10.3000031c-11.6999969,35.5-41.3999939,62.5-78.5,70.2999878&#x9;&#x9;c-14.1000061,3.1000061-29.8999939,3.1000061-44,0c-37-7.8000031-66.6999969-34.8999939-78.4000015-70.3000031&#x9;&#x9;c3.2000008-2.3000031,5.2999992-6.1000061,5.2999992-10.3000031c0-7.1000061-5.7000008-12.8000031-12.7999992-12.8000031&#x9;&#x9;s-12.7999992,5.6999969-12.7999992,12.8000031c0,6.6999969,5.0999985,12.1000061,11.6000023,12.6999969&#x9;&#x9;c12.5999985,38.6999969,44.9000015,68.1999969,85.3000031,76.6999969c7.7000046,1.7000122,15.7000046,2.5,24.0000076,2.5&#x9;&#x9;c8.1999969,0,16.1999969-0.8999939,23.8000031-2.5C215.2249908,261.3999939,247.625,231.8999939,260.2250061,193.1000061z&#x9;&#x9; M226.0249939,181.8000031c5.1000061-15.5,5.1000061-33.0999908,0-48.5999908&#x9;&#x9;c-6.5-20.0999985-20.8000031-36.5-39.3000031-45.9000015c0-0.1999969,0.1000061-0.4000015,0.1000061-0.5999985&#x9;&#x9;c0-7.0999985-5.6999969-12.8000031-12.8000031-12.8000031s-12.8000031,5.6999969-12.8000031,12.8000031&#x9;&#x9;c0,7.0999985,5.6999969,12.8000031,12.8000031,12.8000031c3.6000061,0,6.8999939-1.5,9.1999969-3.9000015&#x9;&#x9;c16.1000061,8.4000015,28.6000061,22.7999954,34.3000031,40.4000015c4.5,13.8000031,4.5,29.3000031,0,43&#x9;&#x9;c-5.6000061,17.5-18.1000061,31.8999939-34.3000031,40.3000031c-2.3000031-2.3999939-5.6000061-3.8999939-9.1999969-3.8999939&#x9;&#x9;c-7.1000061,0-12.8000031,5.6999969-12.8000031,12.8000031s5.6999969,12.8000031,12.8000031,12.8000031&#x9;&#x9;s12.8000031-5.6999969,12.8000031-12.8000031c0-0.1999969-0.1000061-0.3999939-0.1000061-0.5&#x9;&#x9;C205.2249908,218.3000031,219.625,201.8999939,226.0249939,181.8000031z M118.8249969,95.6999969&#x9;&#x9;c2.3000031,2.4000015,5.5999985,3.9000015,9.1999969,3.9000015c7.1000061,0,12.8000031-5.6999969,12.8000031-12.8000031&#x9;&#x9;c0-7.0999985-5.6999969-12.8000031-12.8000031-12.8000031c-7.0999985,0-12.8000031,5.6999969-12.8000031,12.8000031&#x9;&#x9;c0,0.1999969,0.0999985,0.4000015,0.0999985,0.5999985c-18.5,9.5-32.9000015,25.9000015-39.2999954,45.8999939&#x9;&#x9;c-5.0999985,15.6000061-5.0999985,33,0,48.6000061c6.4000015,19.8999939,20.8000031,36.3999939,39.3000031,45.8000031&#x9;&#x9;c0,0.1999969-0.0999985,0.3999939-0.0999985,0.6000061c0,7.1000061,5.6999969,12.8000031,12.7999954,12.8000031&#x9;&#x9;c7.1000061,0,12.8000031-5.6999969,12.8000031-12.8000031S135.125,215.5,128.0249939,215.5&#x9;&#x9;c-3.5999985,0-6.9000015,1.5-9.1999969,3.8999939C102.625,211,90.125,196.5,84.5249939,179.0999908&#x9;&#x9;c-4.5-13.8000031-4.5-29.1999969,0-43C90.2249908,118.5,102.7249908,104.0999985,118.8249969,95.6999969z"/>
          </g>
  </svg>